<svg width="32" height="32" viewBox="0 0 32 32" fill="none" xmlns="http://www.w3.org/2000/svg">
<path fill-rule="evenodd" clip-rule="evenodd" d="M11 3.5H21C24.5899 3.5 27.5 6.41015 27.5 10V25.625H4.5V10C4.5 6.41015 7.41015 3.5 11 3.5ZM4.5 26.375V28.5H27.5V26.375H4.5ZM3 10C3 5.58172 6.58172 2 11 2H21C25.4183 2 29 5.58172 29 10V30H3V10ZM16.375 22.7568C16.6053 22.8955 16.9622 23 17.4999 23C18.6997 23 18.9998 22.2195 18.9999 21.8293C22.1999 21.8293 22.3334 20.2683 22.0001 19.4878C23.6003 19.4878 23.6668 17.9268 23.5 17.1463C24 17.0163 25 16.4439 25 15.1951C25 13.9463 24 13.6341 23.5 13.6341C23.6666 13.5041 24 13.0098 24 12.0732C24 11.1366 22.6667 10.6423 22.0001 10.5122C22.3335 10.252 22.8001 9.57561 22.0001 8.95122C21.2001 8.32683 20.6668 8.17073 20.5001 8.17073C20.3334 7.78049 19.6001 7 18 7C17.1774 7 16.6719 7.20633 16.375 7.45986V9.39781C16.5029 9.45752 16.5916 9.58731 16.5916 9.73779C16.5916 10.5302 16.8888 10.9636 17.188 11.2064C17.5079 11.466 17.8561 11.5286 17.9463 11.5286C18.1534 11.5286 18.3213 11.6965 18.3213 11.9036C18.3213 12.1108 18.1534 12.2786 17.9463 12.2786C17.6906 12.2786 17.1739 12.1608 16.7154 11.7887C16.5949 11.691 16.4798 11.5768 16.375 11.4445V20.0672C17.5307 20.025 18.3133 19.2095 18.5542 18.8074C18.6606 18.6297 18.8909 18.5719 19.0686 18.6784C19.2463 18.7848 19.304 19.0151 19.1976 19.1928C18.875 19.7314 17.8829 20.7758 16.375 20.8177V22.7568ZM15.625 20.0672C14.4693 20.025 13.6867 19.2095 13.4458 18.8074C13.3394 18.6297 13.1091 18.5719 12.9314 18.6784C12.7537 18.7848 12.696 19.0151 12.8024 19.1928C13.125 19.7314 14.1171 20.7758 15.625 20.8177V22.7568C15.3947 22.8955 15.0378 23 14.5001 23C13.3003 23 13.0002 22.2195 13.0001 21.8293C9.80005 21.8293 9.6666 20.2683 9.99988 19.4878C8.39972 19.4878 8.33324 17.9268 8.50003 17.1463C8.00002 17.0163 7 16.4439 7 15.1951C7 13.9463 8.00002 13.6341 8.50003 13.6341C8.33336 13.5041 8.00002 13.0098 8.00002 12.0732C8.00002 11.1366 9.33326 10.6423 9.99988 10.5122C9.66654 10.252 9.19987 9.57561 9.99988 8.95122C10.7999 8.32683 11.3332 8.17073 11.4999 8.17073C11.6666 7.78049 12.3999 7 14 7C14.8226 7 15.3281 7.20633 15.625 7.45986V9.54783C15.4971 9.60755 15.4084 9.73733 15.4084 9.88782C15.4084 10.6802 15.1112 11.1136 14.812 11.3564C14.4921 11.616 14.1439 11.6787 14.0537 11.6787C13.8466 11.6787 13.6787 11.8466 13.6787 12.0537C13.6787 12.2608 13.8466 12.4287 14.0537 12.4287C14.3094 12.4287 14.8261 12.3109 15.2846 11.9387C15.4051 11.841 15.5202 11.7268 15.625 11.5945V20.0672ZM13.6217 7.70801C13.8288 7.70801 13.9967 7.8759 13.9967 8.08301C13.9967 8.35589 13.9493 8.77158 13.7931 9.13395C13.6376 9.49447 13.322 9.90191 12.7568 9.90191C12.5497 9.90191 12.3818 9.73402 12.3818 9.52691C12.3818 9.3198 12.5497 9.15191 12.7568 9.15191C12.8836 9.15191 13.0004 9.07805 13.1044 8.83694C13.2076 8.59769 13.2467 8.29142 13.2467 8.08301C13.2467 7.8759 13.4146 7.70801 13.6217 7.70801ZM12.4153 15.7363C12.6863 15.7665 12.9796 15.7499 13.2896 15.6637C13.4891 15.6082 13.6058 15.4014 13.5503 15.2019C13.4948 15.0024 13.288 14.8856 13.0885 14.9411C12.2566 15.1726 11.5616 14.6491 11.3199 14.3464C11.1906 14.1846 10.9547 14.1582 10.7929 14.2874C10.631 14.4167 10.6046 14.6526 10.7338 14.8145C10.8862 15.0052 11.1714 15.2698 11.5542 15.4689C11.6175 15.6329 11.684 15.8526 11.7028 16.021C11.7044 16.0352 11.7055 16.048 11.7063 16.0594C11.593 16.1239 11.5167 16.2457 11.5167 16.3854C11.5167 16.5925 11.6846 16.7604 11.8917 16.7604C12.0034 16.7604 12.1201 16.7299 12.2217 16.6539C12.3203 16.58 12.3771 16.4839 12.4091 16.3985C12.4682 16.2407 12.4626 16.0671 12.4482 15.9376C12.4408 15.8717 12.4294 15.8039 12.4153 15.7363ZM15.2288 16.0244C15.2288 15.8173 15.0609 15.6494 14.8538 15.6494C14.6467 15.6494 14.4788 15.8173 14.4788 16.0244C14.4788 16.1088 14.4624 16.2689 14.4099 16.4345C14.3565 16.6028 14.2782 16.7384 14.1811 16.8195C14.0221 16.9522 14.0008 17.1887 14.1335 17.3477C14.2662 17.5066 14.5027 17.5279 14.6617 17.3952C14.9106 17.1875 15.0484 16.902 15.1248 16.6612C15.202 16.4176 15.2288 16.1807 15.2288 16.0244ZM10.5947 18.1763C10.3876 18.1763 10.2197 18.3442 10.2197 18.5513C10.2197 18.7584 10.3876 18.9263 10.5947 18.9263H11.892C12.0991 18.9263 12.267 18.7584 12.267 18.5513C12.267 18.3442 12.0991 18.1763 11.892 18.1763H10.5947ZM10.2503 13.4292C9.89723 13.4 9.57416 13.4489 9.39798 13.498C9.19846 13.5535 8.9917 13.4367 8.93618 13.2372C8.88066 13.0377 8.99741 12.8309 9.19693 12.7754C9.45319 12.7041 9.86525 12.6448 10.3122 12.6817C10.7591 12.7187 11.2751 12.8552 11.6999 13.2098C11.8589 13.3425 11.8802 13.579 11.7475 13.738C11.6148 13.897 11.3783 13.9183 11.2193 13.7855C10.9522 13.5626 10.6034 13.4584 10.2503 13.4292ZM10.5947 9.8739C10.3876 9.8739 10.2197 10.0418 10.2197 10.2489C10.2197 10.456 10.3876 10.6239 10.5947 10.6239C10.8015 10.6239 11.4644 10.7414 12.0841 11.2587C12.2431 11.3915 12.4796 11.3702 12.6123 11.2112C12.7451 11.0522 12.7238 10.8157 12.5648 10.683C11.8008 10.0452 10.9646 9.8739 10.5947 9.8739ZM18.0033 7.93298C18.0033 7.72588 18.1712 7.55798 18.3783 7.55798C18.5854 7.55798 18.7533 7.72588 18.7533 7.93298C18.7533 8.1414 18.7924 8.44766 18.8956 8.68692C18.9996 8.92802 19.1164 9.00189 19.2432 9.00189C19.4503 9.00189 19.6182 9.16978 19.6182 9.37689C19.6182 9.58399 19.4503 9.75189 19.2432 9.75189C18.678 9.75189 18.3624 9.34445 18.2069 8.98392C18.0507 8.62156 18.0033 8.20587 18.0033 7.93298ZM18.7104 15.5137C19.0204 15.5999 19.3137 15.6165 19.5847 15.5862C19.5706 15.6539 19.5592 15.7217 19.5518 15.7876C19.5374 15.9171 19.5318 16.0907 19.5909 16.2485C19.6229 16.3339 19.6797 16.43 19.7783 16.5038C19.8799 16.5799 19.9966 16.6104 20.1083 16.6104C20.3154 16.6104 20.4833 16.4425 20.4833 16.2354C20.4833 16.0957 20.407 15.9739 20.2937 15.9093C20.2945 15.898 20.2956 15.8852 20.2972 15.8709C20.316 15.7025 20.3825 15.4828 20.4458 15.3189C20.8286 15.1197 21.1138 14.8552 21.2662 14.6645C21.3954 14.5026 21.369 14.2667 21.2071 14.1374C21.0453 14.0082 20.8094 14.0346 20.6801 14.1964C20.4384 14.4991 19.7434 15.0226 18.9115 14.7911C18.712 14.7356 18.5052 14.8523 18.4497 15.0519C18.3942 15.2514 18.5109 15.4581 18.7104 15.5137ZM17.1462 15.4994C16.9391 15.4994 16.7712 15.6673 16.7712 15.8744C16.7712 16.0307 16.798 16.2676 16.8752 16.5112C16.9516 16.752 17.0894 17.0375 17.3383 17.2452C17.4973 17.3779 17.7338 17.3566 17.8665 17.1976C17.9992 17.0386 17.9779 16.8022 17.8189 16.6694C17.7218 16.5884 17.6435 16.4527 17.5901 16.2845C17.5376 16.1189 17.5212 15.9588 17.5212 15.8744C17.5212 15.6673 17.3533 15.4994 17.1462 15.4994ZM21.7803 18.4012C21.7803 18.1941 21.6124 18.0262 21.4053 18.0262H20.108C19.9009 18.0262 19.733 18.1941 19.733 18.4012C19.733 18.6084 19.9009 18.7762 20.108 18.7762H21.4053C21.6124 18.7762 21.7803 18.6084 21.7803 18.4012ZM22.602 13.3479C22.4258 13.2989 22.1028 13.25 21.7497 13.2792C21.3966 13.3084 21.0478 13.4126 20.7807 13.6355C20.6217 13.7682 20.3852 13.7469 20.2525 13.5879C20.1198 13.429 20.1411 13.1925 20.3001 13.0598C20.7249 12.7051 21.2409 12.5687 21.6878 12.5317C22.1347 12.4947 22.5468 12.5541 22.8031 12.6254C23.0026 12.6809 23.1193 12.8877 23.0638 13.0872C23.0083 13.2867 22.8015 13.4035 22.602 13.3479ZM21.7803 10.0989C21.7803 9.89177 21.6124 9.72388 21.4053 9.72388C21.0354 9.72388 20.1992 9.8952 19.4352 10.5329C19.2762 10.6657 19.2549 10.9021 19.3877 11.0611C19.5204 11.2201 19.7569 11.2414 19.9159 11.1087C20.5357 10.5913 21.1985 10.4739 21.4053 10.4739C21.6124 10.4739 21.7803 10.306 21.7803 10.0989ZM23.375 24C23.375 23.6548 23.6548 23.375 24 23.375C24.3452 23.375 24.625 23.6548 24.625 24C24.625 24.3452 24.3452 24.625 24 24.625C23.6548 24.625 23.375 24.3452 23.375 24ZM24 22.625C23.2406 22.625 22.625 23.2406 22.625 24C22.625 24.7594 23.2406 25.375 24 25.375C24.7594 25.375 25.375 24.7594 25.375 24C25.375 23.2406 24.7594 22.625 24 22.625ZM8 6.375C7.65482 6.375 7.375 6.65482 7.375 7C7.375 7.34518 7.65482 7.625 8 7.625C8.34518 7.625 8.625 7.34518 8.625 7C8.625 6.65482 8.34518 6.375 8 6.375ZM6.625 7C6.625 6.24061 7.24061 5.625 8 5.625C8.75939 5.625 9.375 6.24061 9.375 7C9.375 7.75939 8.75939 8.375 8 8.375C7.24061 8.375 6.625 7.75939 6.625 7ZM24.375 20.5C24.375 19.8787 24.8787 19.375 25.5 19.375C26.1213 19.375 26.625 19.8787 26.625 20.5C26.625 21.1213 26.1213 21.625 25.5 21.625C24.8787 21.625 24.375 21.1213 24.375 20.5ZM25.5 18.625C24.4645 18.625 23.625 19.4645 23.625 20.5C23.625 21.5355 24.4645 22.375 25.5 22.375C26.5355 22.375 27.375 21.5355 27.375 20.5C27.375 19.4645 26.5355 18.625 25.5 18.625Z" fill="white"/>
</svg>
