<svg width="32" height="32" viewBox="0 0 32 32" fill="none" xmlns="http://www.w3.org/2000/svg">
<path fill-rule="evenodd" clip-rule="evenodd" d="M2 26C2 25.4477 2.44772 25 3 25L5.12606 25C5.57011 23.2748 7.1362 22 9.00003 22C10.8639 22 12.43 23.2748 12.874 25L29 25C29.5523 25 30 25.4477 30 26C30 26.5523 29.5523 27 29 27L12.874 27C12.43 28.7252 10.8639 30 9.00003 30C7.13618 30 5.57007 28.7252 5.12604 27L3 27C2.44772 27 2 26.5523 2 26ZM1.99995 16C1.99995 15.4477 2.44767 15 2.99995 15L12.126 15C12.5701 13.2748 14.1362 12 16 12C17.8639 12 19.43 13.2748 19.874 15L29 15C29.5522 15 30 15.4477 30 16C30 16.5523 29.5522 17 29 17L19.874 17C19.43 18.7252 17.8639 20 16 20C14.1362 20 12.5701 18.7252 12.1261 17L2.99995 17C2.44767 17 1.99995 16.5523 1.99995 16ZM3 4.99997C2.44771 4.99997 2 5.44768 2 5.99997C2 6.55225 2.44771 6.99997 3 6.99997L19.126 6.99997C19.5701 8.7252 21.1362 9.99997 23 9.99997C24.8639 9.99997 26.43 8.7252 26.874 6.99997L29 6.99997C29.5523 6.99997 30 6.55225 30 5.99997C30 5.44768 29.5523 4.99997 29 4.99997L26.874 4.99997C26.43 3.27474 24.8639 1.99997 23 1.99997C21.1362 1.99997 19.5701 3.27474 19.126 4.99997L3 4.99997ZM21 5.99997C21 4.8954 21.8955 3.99997 23 3.99997C24.1046 3.99997 25 4.8954 25 5.99997C25 7.10454 24.1046 7.99997 23 7.99997C21.8955 7.99997 21 7.10454 21 5.99997ZM14 16C14 14.8954 14.8955 14 16 14C17.1046 14 18 14.8954 18 16C18 17.1045 17.1046 18 16 18C14.8955 18 14 17.1045 14 16ZM9.00003 24C7.89546 24 7.00003 24.8954 7.00003 26C7.00003 27.1046 7.89546 28 9.00003 28C10.1046 28 11 27.1046 11 26C11 24.8954 10.1046 24 9.00003 24Z" fill="#25282D"/>
</svg>
