<svg width="24" height="24" viewBox="0 0 24 24" fill="none" xmlns="http://www.w3.org/2000/svg">
<path fill-rule="evenodd" clip-rule="evenodd" d="M2 19C2 18.4477 2.44772 18 3 18L4.17071 18C4.58254 16.8348 5.69378 16 7 16C8.30622 16 9.41746 16.8348 9.82929 18L21 18C21.5523 18 22 18.4477 22 19C22 19.5523 21.5523 20 21 20L9.82929 20C9.41746 21.1652 8.30622 22 7 22C5.69378 22 4.58254 21.1652 4.17071 20L3 20C2.44772 20 2 19.5523 2 19ZM2 12C2 11.4477 2.44772 11 3 11L9.17071 11C9.58254 9.83481 10.6938 9 12 9C13.3062 9 14.4175 9.83481 14.8293 11L21 11C21.5523 11 22 11.4477 22 12C22 12.5523 21.5523 13 21 13L14.8293 13C14.4175 14.1652 13.3062 15 12 15C10.6938 15 9.58254 14.1652 9.17071 13L3 13C2.44772 13 2 12.5523 2 12ZM3 4C2.44772 4 2 4.44771 2 5C2 5.55229 2.44772 6 3 6L14.1707 6C14.5825 7.16519 15.6938 8 17 8C18.3062 8 19.4175 7.16519 19.8293 6L21 6C21.5523 6 22 5.55228 22 5C22 4.44771 21.5523 4 21 4L19.8293 4C19.4175 2.83481 18.3062 2 17 2C15.6938 2 14.5825 2.83481 14.1707 4L3 4ZM16 5C16 4.44772 16.4477 4 17 4C17.5523 4 18 4.44772 18 5C18 5.55228 17.5523 6 17 6C16.4477 6 16 5.55228 16 5ZM11 12C11 11.4477 11.4477 11 12 11C12.5523 11 13 11.4477 13 12C13 12.5523 12.5523 13 12 13C11.4477 13 11 12.5523 11 12ZM7 18C6.44771 18 6 18.4477 6 19C6 19.5523 6.44771 20 7 20C7.55228 20 8 19.5523 8 19C8 18.4477 7.55228 18 7 18Z" fill="#25282D"/>
</svg>
