<svg width="16" height="16" viewBox="0 0 16 16" fill="none" xmlns="http://www.w3.org/2000/svg">
<path fill-rule="evenodd" clip-rule="evenodd" d="M1.25091 13.25C1.25091 12.8358 1.5867 12.5 2.00091 12.5L2.87802 12.5C3.18689 11.6261 4.02032 11 4.99999 11C5.97965 11 6.81308 11.6261 7.12196 12.5L14 12.5C14.4142 12.5 14.75 12.8358 14.75 13.25C14.75 13.6642 14.4142 14 14 14L7.12196 14C6.81308 14.8739 5.97965 15.5 4.99999 15.5C4.02032 15.5 3.18689 14.8739 2.87802 14L2.00091 14C1.5867 14 1.25091 13.6642 1.25091 13.25ZM1.25006 8C1.25006 7.58579 1.58584 7.25 2.00006 7.25L5.87801 7.25C6.18689 6.37611 7.02032 5.75 7.99998 5.75C8.97965 5.75 9.81308 6.37611 10.122 7.25L13.9991 7.25C14.4134 7.25 14.7491 7.58579 14.7491 8C14.7491 8.41421 14.4134 8.75 13.9991 8.75L10.122 8.75C9.81308 9.62389 8.97965 10.25 7.99998 10.25C7.02032 10.25 6.18689 9.62389 5.87801 8.75L2.00006 8.75C1.58584 8.75 1.25006 8.41421 1.25006 8ZM2.00091 2C1.5867 2 1.25091 2.33579 1.25091 2.75C1.25091 3.16421 1.5867 3.5 2.00091 3.5L8.87801 3.5C9.18689 4.37389 10.0203 5 11 5C11.9796 5 12.8131 4.37389 13.122 3.5L14 3.5C14.4142 3.5 14.75 3.16421 14.75 2.75C14.75 2.33579 14.4142 2 14 2L13.122 2C12.8131 1.12611 11.9796 0.5 11 0.5C10.0203 0.5 9.18689 1.12611 8.87801 2L2.00091 2ZM10.25 2.75C10.25 2.33579 10.5858 2 11 2C11.4142 2 11.75 2.33579 11.75 2.75C11.75 3.16421 11.4142 3.5 11 3.5C10.5858 3.5 10.25 3.16421 10.25 2.75ZM7.24998 8C7.24998 7.58579 7.58577 7.25 7.99998 7.25C8.4142 7.25 8.74998 7.58579 8.74998 8C8.74998 8.41421 8.4142 8.75 7.99998 8.75C7.58577 8.75 7.24998 8.41421 7.24998 8ZM4.99999 12.5C4.58577 12.5 4.24999 12.8358 4.24999 13.25C4.24999 13.6642 4.58577 14 4.99999 14C5.4142 14 5.74999 13.6642 5.74999 13.25C5.74999 12.8358 5.4142 12.5 4.99999 12.5Z" fill="#25282D"/>
</svg>
