<svg width="64" height="64" viewBox="0 0 64 64" fill="none" xmlns="http://www.w3.org/2000/svg">
<path d="M34.0191 51V42H29V51H23L31.5002 61L40 51H34.0191Z" fill="black"/>
<path d="M22.8879 26.5588C22.4942 26.5588 22.2276 26.5967 22.0879 26.6346V29.1455C22.253 29.1834 22.4561 29.196 22.7355 29.196C23.7637 29.196 24.3986 28.6786 24.3986 27.8082C24.3986 27.0258 23.8526 26.5588 22.8879 26.5588Z" fill="black"/>
<path d="M31.0022 26.5842C30.5707 26.5842 30.2914 26.6221 30.126 26.6599V32.2242C30.2914 32.262 30.5577 32.262 30.799 32.262C32.5513 32.2747 33.6935 31.3159 33.6935 29.2845C33.7066 27.5181 32.6653 26.5842 31.0022 26.5842Z" fill="black"/>
<path d="M49.1086 20L49.1091 15.4859C49.1091 15.2408 49.0062 14.9919 48.8342 14.8172L37.4305 3.28251C37.282 3.09702 36.9813 3 36.7531 3H14.9449C14.4188 3 13.9925 3.42582 13.9925 3.95121L13.992 20H11L11.0005 39H13.9925V47.0488C13.9925 47.5745 14.4188 48 14.9449 48H27.0005V46H16V39.0485H47V46H36.0005V48H48C48.526 48 49 47.526 49 47.0003V39L52.0005 39.0485L52 20H49.1086ZM38 6L45 14H38V6ZM25.5291 29.9109C24.8688 30.532 23.8914 30.8111 22.7489 30.8111C22.4949 30.8111 22.2663 30.7984 22.0886 30.773V33.8289H20.1714V25.3965C20.7679 25.295 21.606 25.2189 22.787 25.2189C23.9803 25.2189 24.8307 25.4472 25.4022 25.9038C25.9482 26.3347 26.3161 27.0449 26.3161 27.882C26.3161 28.719 26.0371 29.429 25.5291 29.9109ZM34.329 32.8146C33.4274 33.5626 32.0563 33.9177 30.3805 33.9177C29.3773 33.9177 28.6662 33.8546 28.184 33.7912V25.3965C28.8951 25.2823 29.8218 25.2189 30.7995 25.2189C32.4246 25.2189 33.4782 25.5106 34.3036 26.1318C35.1925 26.7913 35.7512 27.8436 35.7512 29.3525C35.7509 30.9886 35.1541 32.1174 34.329 32.8146ZM42.8876 26.8674H39.5994V28.8202H42.672V30.3925H39.5994V33.8289H37.6572V25.2823H42.8879L42.8876 26.8674ZM47 20H15.9995L16 5H36V15C36 15.5254 36.474 16 37 16H47.0005L47 20Z" fill="black"/>
</svg>
