<svg width="32" height="32" viewBox="0 0 32 32" fill="none" xmlns="http://www.w3.org/2000/svg">
<path d="M10 17C13.6 5.8 24.1667 3 29 3C29 13.8 19.6667 20.1667 15 22C15 22 14 22 12 20C10 18 10 17 10 17Z" stroke="white" stroke-width="1.5" stroke-linejoin="round"/>
<path d="M21 5C21.5 7 24.5 10 27 11" stroke="white" stroke-width="0.75" stroke-linejoin="round"/>
<circle cx="20" cy="12" r="2" stroke="white" stroke-width="0.75" stroke-linejoin="round"/>
<path d="M11.5 13.5C12.5 16 16 19.5 18.5 20.5" stroke="white" stroke-width="0.75" stroke-linejoin="round"/>
<path d="M7.5 20L10.5 18.5L13 21L11.5 24L7.5 20Z" stroke="white" stroke-width="1.5" stroke-linejoin="round"/>
<path d="M15.5 28C20.7 26.4 21.5 21.5 21 19L16.5 21.5C17.7 23.5 16.3333 26.6667 15.5 28Z" stroke="white" stroke-width="1.5" stroke-linejoin="round"/>
<path d="M3 17.1713C4.6 11.9713 9.5 11.5 12 12L9.5 16.1713C7.5 14.9713 4.33333 16.3379 3 17.1713Z" stroke="white" stroke-width="1.5" stroke-linejoin="round"/>
<path d="M3 25C4.2 23.8 6.16667 23.8333 7 24L8 25C8.16667 26 8.2 28.2 7 29C5.8 29.8 3.5 30 2 30C2.16667 28.8333 1.8 26.2 3 25Z" stroke="white" stroke-width="1.5" stroke-linejoin="round"/>
</svg>
