<svg width="64" height="64" viewBox="0 0 64 64" fill="none" xmlns="http://www.w3.org/2000/svg">
  <path
    d="M32 60C26.4621 60 21.0486 58.3578 16.444 55.2812C11.8395 52.2045 8.25064 47.8315 6.13139 42.7151C4.01213 37.5988 3.45764 31.9689 4.53802 26.5375C5.61841 21.106 8.28515 16.1169 12.201 12.201C16.1169 8.28515 21.106 5.61841 26.5375 4.53802C31.9689 3.45764 37.5988 4.01213 42.7151 6.13139C47.8315 8.25064 52.2045 11.8395 55.2812 16.444C58.3578 21.0486 60 26.4621 60 32C59.9918 39.4235 57.0392 46.5407 51.7899 51.7899C46.5407 57.0392 39.4235 59.9918 32 60V60ZM32 5.42874C26.7447 5.42874 21.6074 6.98712 17.2378 9.90681C12.8682 12.8265 9.46248 16.9764 7.45136 21.8316C5.44024 26.6869 4.91404 32.0295 5.9393 37.1838C6.96456 42.3381 9.49523 47.0727 13.2113 50.7887C16.9273 54.5048 21.6619 57.0355 26.8162 58.0607C31.9705 59.086 37.3131 58.5598 42.1684 56.5487C47.0237 54.5375 51.1735 51.1318 54.0932 46.7622C57.0129 42.3926 58.5713 37.2553 58.5713 32C58.5631 24.9554 55.761 18.2017 50.7797 13.2204C45.7984 8.23907 39.0446 5.43696 32 5.42874Z"
    fill="black" />
  <path
    d="M31.9999 60C31.8104 60 31.6287 59.9248 31.4948 59.7908C31.3608 59.6568 31.2855 59.4751 31.2855 59.2857V4.71443C31.2855 4.52496 31.3608 4.34326 31.4948 4.20929C31.6287 4.07532 31.8104 4.00006 31.9999 4.00006C32.1893 4.00006 32.371 4.07532 32.505 4.20929C32.639 4.34326 32.7142 4.52496 32.7142 4.71443V59.2857C32.7142 59.4751 32.639 59.6568 32.505 59.7908C32.371 59.9248 32.1893 60 31.9999 60Z"
    fill="black" />
  <path
    d="M59.2856 32.7144H4.71436C4.5249 32.7144 4.3432 32.6392 4.20923 32.5052C4.07526 32.3712 4 32.1895 4 32.0001C4 31.8106 4.07526 31.6289 4.20923 31.4949C4.3432 31.361 4.5249 31.2857 4.71436 31.2857H59.2856C59.4751 31.2857 59.6568 31.361 59.7908 31.4949C59.9247 31.6289 60 31.8106 60 32.0001C60 32.1895 59.9247 32.3712 59.7908 32.5052C59.6568 32.6392 59.4751 32.7144 59.2856 32.7144V32.7144Z"
    fill="black" />
  <path
    d="M55.2946 18.4504H8.70558C8.51611 18.4504 8.33441 18.3751 8.20044 18.2412C8.06647 18.1072 7.99121 17.9255 7.99121 17.736C7.99121 17.5466 8.06647 17.3649 8.20044 17.2309C8.33441 17.0969 8.51611 17.0217 8.70558 17.0217H55.2946C55.484 17.0217 55.6657 17.0969 55.7997 17.2309C55.9337 17.3649 56.0089 17.5466 56.0089 17.736C56.0089 17.9255 55.9337 18.1072 55.7997 18.2412C55.6657 18.3751 55.484 18.4504 55.2946 18.4504V18.4504Z"
    fill="black" />
  <path
    d="M55.2946 46.9784H8.70558C8.51611 46.9784 8.33441 46.9031 8.20044 46.7691C8.06647 46.6352 7.99121 46.4535 7.99121 46.264C7.99121 46.0745 8.06647 45.8928 8.20044 45.7589C8.33441 45.6249 8.51611 45.5496 8.70558 45.5496H55.2946C55.484 45.5496 55.6657 45.6249 55.7997 45.7589C55.9337 45.8928 56.0089 46.0745 56.0089 46.264C56.0089 46.4535 55.9337 46.6352 55.7997 46.7691C55.6657 46.9031 55.484 46.9784 55.2946 46.9784V46.9784Z"
    fill="black" />
  <path
    d="M41.4031 58.3383C41.3284 58.3493 41.2526 58.3493 41.1779 58.3383C40.9971 58.278 40.8475 58.1486 40.7617 57.9785C40.6759 57.8083 40.6608 57.6111 40.7198 57.4298C41.6981 54.487 42.529 51.482 43.2045 48.508C43.3831 47.7316 43.5462 46.9551 43.7015 46.1786C44.6347 41.5203 45.1544 36.7886 45.2544 32.0388C45.33 27.3067 44.9215 22.5792 44.0354 17.9301C43.8723 17.0682 43.6782 16.2141 43.5306 15.6007C42.8341 12.588 41.9206 9.62969 40.7974 6.74877C40.7564 6.66034 40.7339 6.56445 40.7313 6.46701C40.7287 6.36956 40.7461 6.27261 40.7824 6.18214C40.8187 6.09166 40.8731 6.00957 40.9423 5.94091C41.0115 5.87226 41.094 5.8185 41.1848 5.78294C41.2756 5.74737 41.3727 5.73076 41.4701 5.73413C41.5675 5.7375 41.6632 5.76076 41.7513 5.80251C41.8394 5.84425 41.918 5.90358 41.9823 5.97684C42.0466 6.05011 42.0953 6.13576 42.1252 6.22852C43.2752 9.17544 44.2119 12.2012 44.9283 15.2823C45.0759 15.9423 45.27 16.8353 45.4408 17.6894C46.3392 22.4052 46.7581 27.1998 46.6909 32C46.599 36.8377 46.0793 41.6577 45.138 46.4038C44.9749 47.1803 44.8118 47.9567 44.6255 48.7953C43.9422 51.8159 43.0725 54.8597 42.1097 57.8491C42.0609 57.9963 41.9656 58.1236 41.8382 58.2119C41.7107 58.3001 41.558 58.3445 41.4031 58.3383Z"
    fill="black" />
  <path
    d="M22.5969 58.3383C22.4473 58.3378 22.3015 58.2903 22.1803 58.2025C22.0591 58.1148 21.9685 57.9911 21.9214 57.8491C20.9352 54.8597 20.0889 51.8158 19.4056 48.7953C19.2192 48.0188 19.0561 47.1958 18.8931 46.4038C17.953 41.6627 17.4333 36.8479 17.3401 32.0155C17.2627 27.1815 17.6816 22.3524 18.5903 17.604C18.7145 16.9129 18.8776 16.1675 19.095 15.1969C19.8152 12.1159 20.7546 9.09026 21.9058 6.14307C21.9358 6.05031 21.9844 5.96466 22.0487 5.89139C22.113 5.81813 22.1916 5.7588 22.2797 5.71706C22.3678 5.67532 22.4635 5.65205 22.561 5.64868C22.6584 5.64531 22.7555 5.66192 22.8462 5.69749C22.937 5.73305 23.0195 5.78681 23.0887 5.85547C23.1579 5.92412 23.2124 6.00621 23.2486 6.09669C23.2849 6.18716 23.3023 6.28411 23.2997 6.38156C23.2972 6.479 23.2747 6.57489 23.2336 6.66332C22.1139 9.54544 21.2005 12.5035 20.5004 15.5152C20.283 16.4703 20.1277 17.1924 20.0035 17.8447C19.0955 22.507 18.6714 27.2506 18.7378 32C18.8383 36.7498 19.3579 41.4814 20.2907 46.1397C20.446 46.9162 20.6091 47.6927 20.7877 48.4692C21.4632 51.4431 22.2941 54.4481 23.2724 57.391C23.3314 57.5722 23.3164 57.7694 23.2306 57.9396C23.1447 58.1098 22.9951 58.2392 22.8143 58.2995C22.7441 58.3227 22.6709 58.3358 22.5969 58.3383Z"
    fill="black" />
</svg>
