<svg width="64" height="64" viewBox="0 0 64 64" fill="none" xmlns="http://www.w3.org/2000/svg">
<path d="M12.1739 55.007H18.4348V58.004C18.4348 59.0638 18.8745 60.0802 19.6573 60.8296C20.4401 61.579 21.5017 62 22.6087 62H47.6522C48.7592 62 49.8208 61.579 50.6036 60.8296C51.3863 60.0802 51.8261 59.0638 51.8261 58.004V30.0321H53.913V28.0341H51.8261V14.0482H53.913V21.6266L52.1318 23.3319C51.9362 23.5192 51.8263 23.7733 51.8263 24.0382C51.8263 24.3031 51.9362 24.5571 52.1318 24.7444L54.2188 26.7424L55.6943 25.3299L54.345 24.0382L55.6943 22.7465C55.89 22.5592 55.9999 22.3051 56 22.0402V13.0492C56 12.7843 55.8901 12.5302 55.6944 12.3428C55.4987 12.1555 55.2333 12.0502 54.9565 12.0502H49.7391V8.05422H47.6522V12.0502H46.6087C46.3319 12.0502 46.0665 12.1555 45.8708 12.3428C45.6752 12.5302 45.5652 12.7843 45.5652 13.0492V28.0341H42.5788L42.9388 14.1541C43.6 12.4856 43.8359 10.6902 43.6268 8.91691C43.4178 7.14364 42.7698 5.44372 41.7367 3.95834L40.6797 2.44486C40.5752 2.2948 40.4302 2.17462 40.2601 2.09707C40.09 2.01952 39.9012 1.9875 39.7136 2.0044C39.5261 2.0213 39.3468 2.08649 39.1948 2.19306C39.0429 2.29963 38.9238 2.4436 38.8504 2.60969L38.0783 4.35794C37.7463 5.11074 37.3191 5.82168 36.8063 6.47481C36.7783 6.51082 36.7529 6.54853 36.7301 6.5877L36.3617 7.22006C35.7283 8.31073 35.4233 9.54824 35.4805 10.795C35.5378 12.0417 35.9552 13.2488 36.6863 14.282L36.9419 28.0341H33.0435V3.05924C33.0435 2.79429 32.9335 2.54019 32.7379 2.35285C32.5422 2.1655 32.2767 2.06025 32 2.06025H23.6522C23.3754 2.06025 23.11 2.1655 22.9143 2.35285C22.7186 2.54019 22.6087 2.79429 22.6087 3.05924V28.0341H16.3478V30.0321H18.4348V34.0281H13.1308C11.7705 34.0297 10.4665 34.5477 9.5046 35.4686C8.54275 36.3894 8.00166 37.6379 8 38.9402V51.011C8 52.0708 8.43975 53.0872 9.22251 53.8366C10.0053 54.586 11.0669 55.007 12.1739 55.007ZM47.6522 14.0482H49.7391V16.0462H47.6522V14.0482ZM47.6522 18.0442H49.7391V28.0341H47.6522V18.0442ZM38.1837 8.19808L38.5186 7.62166C39.1136 6.85334 39.611 6.01998 40.0003 5.13915L40.0191 5.09719C40.8142 6.24701 41.3299 7.55278 41.5286 8.91852C41.7272 10.2843 41.6036 11.6753 41.167 12.9893H40.8539V9.99227H38.767V12.9893H38.2755C37.8186 12.2699 37.5694 11.4473 37.5533 10.6056C37.5371 9.76379 37.7547 8.93301 38.1837 8.19808ZM38.8609 18.9872L38.7868 14.9913H40.8289L40.7245 18.9872H38.8609ZM40.6734 20.9852L40.4981 27.7894H39.0247L38.8984 20.9852H40.6734ZM24.6957 4.05824H30.9565V6.05623H28.8237V8.05422H30.9565V10.0522H29.5197V12.0502H30.9565V14.0482H28.8237V16.0462H30.9565V18.0442H29.5197V20.0422H30.9565V22.0402H28.8237V24.0382H30.9565V28.0341H24.6957V4.05824ZM20.5217 54.008V30.0321H49.7391V58.004C49.7391 58.5339 49.5193 59.0421 49.1279 59.4168C48.7365 59.7915 48.2057 60.002 47.6522 60.002H22.6087C22.0552 60.002 21.5244 59.7915 21.133 59.4168C20.7416 59.0421 20.5217 58.5339 20.5217 58.004V54.008ZM18.4348 49.0131H14.2609V40.0221H18.4348V49.0131ZM10.087 38.9402C10.0878 38.1676 10.4087 37.4268 10.9794 36.8805C11.55 36.3342 12.3238 36.0269 13.1308 36.0261H18.4348V38.0241H14.2609C13.7074 38.0241 13.1765 38.2346 12.7852 38.6093C12.3938 38.984 12.1739 39.4922 12.1739 40.0221V49.0131C12.1739 49.543 12.3938 50.0512 12.7852 50.4258C13.1765 50.8005 13.7074 51.011 14.2609 51.011H18.4348V53.009H12.1739C11.6204 53.009 11.0896 52.7985 10.6982 52.4238C10.3068 52.0491 10.087 51.5409 10.087 51.011V38.9402Z" fill="black"/>
</svg>
