<svg width="64" height="64" viewBox="0 0 64 64" fill="none" xmlns="http://www.w3.org/2000/svg">
<path d="M17.0044 7.60737C8.11096 15.4725 7.62409 28.7044 15.9009 37.1555C16.2904 37.5565 16.6961 37.942 17.118 38.3121C19.9581 40.8259 21.5648 44.3421 21.5648 48.0279V58.0058C21.5648 60.2111 23.4473 62 25.7681 62H31.0263H32.9737H38.2319C40.5527 62 42.4352 60.2111 42.4352 58.0058V48.0124C42.4677 44.2804 44.1068 40.7334 46.9956 38.2042C55.889 30.3391 56.3759 17.1072 48.0991 8.65605C39.8224 0.204916 25.8979 -0.257738 17.0044 7.60737ZM40.4877 51.359H29.5981C29.0626 51.359 28.6244 51.7754 28.6244 52.2843C28.6244 52.7932 29.0626 53.2096 29.5981 53.2096H40.4877V55.7542H38.0209C37.4854 55.7542 37.0472 56.1706 37.0472 56.6795C37.0472 57.1884 37.4854 57.6048 38.0209 57.6048H40.4877V58.0058C40.4877 59.1932 39.4816 60.1494 38.2319 60.1494H25.7681C24.5184 60.1494 23.5122 59.1932 23.5122 58.0058V57.6048H34.6778C35.2133 57.6048 35.6515 57.1884 35.6515 56.6795C35.6515 56.1706 35.2133 55.7542 34.6778 55.7542H23.5122V53.2096H26.2549C26.7905 53.2096 27.2287 52.7932 27.2287 52.2843C27.2287 51.7754 26.7905 51.359 26.2549 51.359H23.5122V48.9532H40.4877V51.359ZM45.6648 36.8471C42.63 39.515 40.7961 43.1854 40.5202 47.0871H36.9985V37.356C36.9985 36.2302 37.9723 35.3049 39.157 35.3049C41.429 35.3049 43.2629 33.5622 43.2629 31.4032V30.8326C45.4376 30.3237 46.7521 28.2417 46.2166 26.1752C45.681 24.1087 43.4901 22.8595 41.3154 23.3684C39.1407 23.8774 37.8262 25.9593 38.3618 28.0258C38.7188 29.4138 39.8548 30.4933 41.3154 30.8326V31.4032C41.3154 32.529 40.3417 33.4543 39.157 33.4543C36.8849 33.4543 35.051 35.1969 35.051 37.356V47.0871H33.0549V21.5178C35.2296 21.0089 36.5441 18.9115 36.0086 16.8604C35.473 14.8093 33.2659 13.5448 31.1074 14.0537C28.9327 14.5626 27.6182 16.66 28.1537 18.7111C28.5108 20.099 29.6468 21.1785 31.1074 21.5178V47.1026H29.1112V37.3714C29.1112 35.2124 27.2774 33.4697 25.0053 33.4697C23.8206 33.4697 22.8469 32.5444 22.8469 31.4186V30.848C23.5609 30.6784 24.2101 30.3237 24.7294 29.8302C26.3199 28.3342 26.3199 25.8976 24.7294 24.3863C23.1552 22.8749 20.591 22.8749 19.0006 24.3863C17.4102 25.8822 17.4102 28.3188 19.0006 29.8302C19.5199 30.3237 20.1691 30.6784 20.8994 30.848V31.4186C20.8994 33.5777 22.7333 35.3203 25.0053 35.3203C26.19 35.3203 27.1638 36.2456 27.1638 37.3714V47.1026H23.496C23.2526 43.2317 21.4512 39.5921 18.4488 36.955C10.2856 29.8302 9.75009 17.7857 17.2316 10.0286C21.0292 6.09604 26.3848 3.85988 32 3.85988C32.0649 3.85988 32.1298 3.85988 32.1948 3.85988C43.2791 3.95241 52.1726 12.5732 52.059 23.0908C52.0103 28.3034 49.6896 33.2846 45.6648 36.8471ZM40.8123 28.5502L40.7961 28.5347C39.9684 27.7482 39.9684 26.4836 40.7961 25.7125C41.6238 24.926 42.9546 24.926 43.766 25.7125C44.5937 26.4991 44.5937 27.7636 43.766 28.5347C42.9546 29.3058 41.64 29.3212 40.8123 28.5502ZM30.6043 19.2046L30.5881 19.1891C29.7604 18.4026 29.7604 17.138 30.5881 16.3669C31.4158 15.5804 32.7465 15.5804 33.558 16.3669C34.3694 17.1535 34.3857 18.418 33.558 19.1891C32.7465 19.9756 31.432 19.9756 30.6043 19.2046ZM20.3801 25.7125C21.2077 24.926 22.5385 24.926 23.35 25.7125C24.1776 26.4991 24.1776 27.7636 23.35 28.5347C22.5223 29.3058 21.2077 29.3058 20.3801 28.5347C19.5524 27.7482 19.5524 26.4836 20.3801 25.7125Z" fill="black"/>
</svg>
