<svg width="64" height="64" viewBox="0 0 64 64" fill="none" xmlns="http://www.w3.org/2000/svg">
  <path
    d="M57.521 35.5796C56.1526 35.5796 55.042 36.6902 55.042 38.0586V55.042H8.95794V8.95794H25.9414C27.3122 8.95794 28.4203 7.84736 28.4203 6.47897C28.4203 5.11058 27.3122 4 25.9414 4H6.47897C5.1081 4 4 5.11058 4 6.47897V57.521C4 58.8893 5.1081 59.9999 6.47897 59.9999H57.521C58.8918 59.9999 59.9999 58.8893 59.9999 57.521V38.0586C59.9999 36.6902 58.8918 35.5796 57.521 35.5796Z"
    fill="currentColor" />
  <path
    d="M57.5211 4H39.147C37.7761 4 36.668 5.11058 36.668 6.47897C36.668 7.84736 37.7761 8.95794 39.147 8.95794H51.5369L31.9927 28.5021C31.0234 29.4714 31.0234 31.0381 31.9927 32.0074C32.4761 32.4908 33.1107 32.7337 33.7453 32.7337C34.38 32.7337 35.0146 32.4908 35.498 32.0074L55.0422 12.4632V24.8581C55.0422 26.2264 56.1527 27.337 57.5211 27.337C58.892 27.337 60.0001 26.2264 60.0001 24.8581V6.47897C60.0001 5.1081 58.892 4 57.5211 4Z"
    fill="currentColor" />
</svg>
