<svg width="64" height="64" viewBox="0 0 64 64" fill="none" xmlns="http://www.w3.org/2000/svg">
<path d="M55.3697 2H8.5429C6.09672 2 4 4.46998 4 7.45455V44.5043C4 47.4889 6.09672 49.8559 8.5429 49.8559H26.9766L25.3167 55.0017H17.8034C17.2793 55.0017 16.9298 55.4134 16.9298 56.0309V60.9708C16.9298 61.5883 17.2793 62 17.8034 62H46.1966C46.7208 62 47.0702 61.5883 47.0702 60.9708V56.0309C47.0702 55.4134 46.7208 55.0017 46.1966 55.0017H38.6833L37.0234 49.8559H55.4571C57.9906 49.8559 60 47.3859 60 44.5043V7.45455C59.9126 4.46998 57.8159 2 55.3697 2ZM45.2356 60.0446H18.6771V57.163H45.3229V60.0446H45.2356ZM36.7613 55.1046H27.1513L28.8112 49.9588H35.014L36.7613 55.1046ZM58.1654 44.5043C58.1654 46.3568 56.8549 47.7976 55.3697 47.7976H8.5429C6.97036 47.7976 5.74727 46.2539 5.74727 44.5043V7.45455C5.74727 5.60206 7.05772 4.16124 8.5429 4.16124H55.2824C56.8549 4.16124 58.078 5.70497 58.078 7.45455V44.5043H58.1654Z" fill="black"/>
<path d="M44.9725 31.8455L36.8477 28.4492C36.4109 28.2434 35.8867 28.5522 35.712 29.0667C35.5372 29.5813 35.7993 30.1988 36.2361 30.4046L42.0021 32.7717L36.2361 35.1388C35.7993 35.3446 35.5372 35.9621 35.712 36.4767C35.8867 36.9913 36.4109 37.3 36.8477 37.0942L44.9725 33.698C45.3219 33.595 45.584 33.1834 45.584 32.7717C45.584 32.36 45.3219 31.9484 44.9725 31.8455Z" fill="black"/>
<path d="M28.2002 29.0667C28.0255 28.5522 27.5013 28.2434 27.0645 28.4492L18.9397 31.8455C18.5902 31.9484 18.3281 32.36 18.3281 32.7717C18.3281 33.1834 18.5902 33.595 18.9397 33.698L27.0645 37.0942C27.5013 37.3 28.0255 36.9913 28.2002 36.4767C28.3749 35.9621 28.1128 35.3446 27.676 35.1388L21.91 32.7717L27.676 30.4046C28.1128 30.1988 28.3749 29.5813 28.2002 29.0667Z" fill="black"/>
<path d="M34.3146 25.8767C33.8778 25.6709 33.3536 25.8767 33.1789 26.3913L29.0728 38.3296C28.8981 38.8441 29.0728 39.4616 29.5096 39.6675C29.9465 39.8733 30.4706 39.6675 30.6454 39.1529L34.7514 27.2146C35.0135 26.7001 34.8388 26.0826 34.3146 25.8767Z" fill="black"/>
<path d="M54.583 7.55688H9.32871C8.80453 7.55688 8.45508 7.96855 8.45508 8.58604C8.45508 14.761 8.45508 29.7867 8.45508 43.4746C8.45508 44.092 8.80453 44.5037 9.32871 44.5037H54.583C55.1072 44.5037 55.4566 44.092 55.4566 43.4746C55.4566 29.8896 55.4566 14.761 55.4566 8.58604C55.4566 7.96855 55.1072 7.55688 54.583 7.55688ZM10.2023 9.6152H53.7094V17.7456H10.2023V9.6152ZM10.2023 42.3425V19.701H53.7094V42.3425H10.2023Z" fill="black"/>
<path d="M35.9757 12.6008H14.0475C13.5233 12.6008 13.1738 13.0125 13.1738 13.63C13.1738 14.2475 13.5233 14.6591 14.0475 14.6591H35.9757C36.4999 14.6591 36.8493 14.2475 36.8493 13.63C36.8493 13.1154 36.4999 12.6008 35.9757 12.6008Z" fill="black"/>
<path d="M49.2543 12.9096C48.9048 13.3212 48.9048 13.9387 49.2543 14.3504C49.6037 14.7621 50.2153 14.7621 50.4774 14.3504C50.8268 13.9387 50.8268 13.2183 50.4774 12.9096C50.1279 12.4979 49.5164 12.4979 49.2543 12.9096Z" fill="black"/>
<path d="M46.0219 12.9096C45.6724 13.3212 45.6724 13.9387 46.0219 14.3504C46.3713 14.7621 46.8955 14.7621 47.2449 14.3504C47.5944 13.9387 47.5944 13.3212 47.2449 12.9096C46.8955 12.4979 46.3713 12.4979 46.0219 12.9096Z" fill="black"/>
<path d="M42.8773 12.9096C42.5279 13.3212 42.5279 13.9387 42.8773 14.3504C43.2268 14.7621 43.751 14.7621 44.1004 14.3504C44.4499 13.9387 44.4499 13.3212 44.1004 12.9096C43.751 12.4979 43.1394 12.4979 42.8773 12.9096Z" fill="black"/>
</svg>
